<svg class='compass' width="60" height="60" viewBox="0 0 69 69" fill="none" xmlns="http://www.w3.org/2000/svg">
<g id="compass">
<path id="Vector" d="M0 34.5C0 53.5224 15.4776 69 34.5 69C53.5224 69 69 53.5224 69 34.5C69 15.4776 53.5224 0 34.5 0C15.4776 0 0 15.4776 0 34.5ZM34.5 2.15625C52.3343 2.15625 66.8438 16.6657 66.8438 34.5C66.8438 52.3343 52.3343 66.8438 34.5 66.8438C16.6657 66.8438 2.15625 52.3343 2.15625 34.5C2.15625 16.6657 16.6657 2.15625 34.5 2.15625Z" fill="#FFB636"/>
<path id="Vector_2" d="M34.5 62.5312C49.956 62.5312 62.5312 49.956 62.5312 34.5C62.5312 19.044 49.956 6.46875 34.5 6.46875C19.044 6.46875 6.46875 19.044 6.46875 34.5C6.46875 49.956 19.044 62.5312 34.5 62.5312ZM32.3438 8.73497V12.0254C32.3438 12.3113 32.4573 12.5856 32.6595 12.7878C32.8617 12.9899 33.1359 13.1035 33.4219 13.1035C33.7078 13.1035 33.982 12.9899 34.1842 12.7878C34.3864 12.5856 34.5 12.3113 34.5 12.0254V8.625C48.0391 8.625 59.1632 19.0828 60.265 32.3438H56.9724C56.6865 32.3438 56.4123 32.4573 56.2101 32.6595C56.0079 32.8617 55.8943 33.1359 55.8943 33.4219C55.8943 33.7078 56.0079 33.982 56.2101 34.1842C56.4123 34.3864 56.6865 34.5 56.9724 34.5H60.375C60.375 48.7679 48.7679 60.375 34.5 60.375V56.9746C34.5 56.6887 34.3864 56.4144 34.1842 56.2122C33.982 56.0101 33.7078 55.8965 33.4219 55.8965C33.1359 55.8965 32.8617 56.0101 32.6595 56.2122C32.4573 56.4144 32.3438 56.6887 32.3438 56.9746V60.265C19.085 59.1632 8.625 48.0413 8.625 34.5H12.0276C12.3135 34.5 12.5877 34.3864 12.7899 34.1842C12.9921 33.982 13.1057 33.7078 13.1057 33.4219C13.1057 33.1359 12.9921 32.8617 12.7899 32.6595C12.5877 32.4573 12.3135 32.3438 12.0276 32.3438H8.73497C9.77644 19.7965 19.7965 9.77644 32.3438 8.73497Z" fill="#FFB636"/>
<path id="Vector_3" d="M20.2386 49.6822C20.4645 49.6822 20.6848 49.6113 20.8682 49.4795L32.9734 40.7768C33.465 40.8976 33.9717 40.9774 34.5 40.9774C38.0665 40.9774 40.9688 38.0751 40.9688 34.5086C40.9636 34.0093 40.9007 33.5122 40.7812 33.0273L49.6347 20.7108C49.7825 20.5028 49.8519 20.2493 49.8306 19.995C49.8094 19.7408 49.6988 19.5023 49.5185 19.3218C49.3383 19.1413 49.0999 19.0304 48.8457 19.0087C48.5915 18.9871 48.3379 19.0561 48.1297 19.2036L35.6709 28.1585C35.2844 28.0828 34.8917 28.0431 34.4979 28.0399C30.9314 28.0399 28.0291 30.9422 28.0291 34.5086C28.0291 34.9291 28.0766 35.3409 28.1542 35.7398L19.3631 47.9744C19.2481 48.1357 19.1796 48.3255 19.1651 48.5231C19.1507 48.7206 19.1908 48.9184 19.2812 49.0947C19.3716 49.271 19.5087 49.419 19.6775 49.5226C19.8464 49.6263 20.0405 49.6814 20.2386 49.6822ZM30.1875 34.5108C30.1875 32.1324 32.1217 30.1983 34.5 30.1983C36.8784 30.1983 38.8125 32.1324 38.8125 34.5108C38.8125 36.8891 36.8784 38.8233 34.5 38.8233C32.1217 38.8233 30.1875 36.887 30.1875 34.5108ZM44.0393 24.8033L39.7548 30.7654C39.2917 30.1141 38.7128 29.5536 38.0471 29.1115L44.0393 24.8033ZM29.1202 38.0945C29.5493 38.737 30.0991 39.2869 30.7223 39.7397L24.9608 43.8818L29.1202 38.0945Z" fill="#FFB636"/>
</g>
</svg>
