<svg class="plane1" width="50" height="50" viewBox="0 0 50 50" fill="none" xmlns="http://www.w3.org/2000/svg">
<g id="plane1">
<path id="Vector" d="M9.75553 38.4173L12.9484 39.9619L30.1094 31.6302L36.8489 34.8906C37.7426 35.323 38.7715 35.3826 39.7092 35.0564C40.6469 34.7302 41.4166 34.0448 41.8489 33.1511C42.2813 32.2574 42.3409 31.2285 42.0147 30.2908C41.6884 29.3531 41.0031 28.5834 40.1094 28.1511L33.1929 24.8051L29.0736 6.17852L26.0594 4.72029L24.273 20.4899L16.5209 16.7396L15.5964 10.0547L12.2266 8.42446L11.5209 18.4791L4.07554 25.2734L7.44532 26.9036L13.2604 23.4791L21.1542 27.2979L9.75553 38.4173Z" fill="#FFB636"/>
</g>
</svg>
