<svg class="plane2" width="77" height="77" viewBox="0 0 77 77" fill="none" xmlns="http://www.w3.org/2000/svg">
<g id="plane2">
<path id="Vector" d="M60.8148 34.872L58.7229 31.5153L37.5808 29.1607L33.1651 22.0753C32.5795 21.1357 31.6447 20.4672 30.5662 20.2169C29.4878 19.9665 28.3541 20.1549 27.4145 20.7404C26.4749 21.326 25.8064 22.2608 25.5561 23.3392C25.3058 24.4177 25.4941 25.5514 26.0797 26.491L30.6113 33.7624L23.4118 53.7799L25.3867 56.9488L36.4555 43.1399L41.5347 51.2899L38.4285 58.1444L40.6363 61.6871L47.2852 52.6247L58.3498 50.6478L56.142 47.1051L48.6201 46.8742L43.4482 38.5754L60.8148 34.872Z" fill="#FFB636"/>
</g>
</svg>
