<svg class='splash1' width="29" height="34" viewBox="0 0 29 34" fill="none" xmlns="http://www.w3.org/2000/svg">
<g id="splash1">
<path id="Vector" d="M1.85584 20.9827C1.56289 22.5169 1.43818 23.6834 1.48127 24.482C1.52411 25.28 1.84917 25.7598 2.45597 25.9183C2.56982 25.9481 2.67907 25.9477 2.78765 25.9464C2.88259 26.0008 2.97644 26.0543 3.08987 26.0839C3.69584 26.2422 4.21322 25.9824 4.64247 25.3078C5.0698 24.632 5.53191 23.5537 6.02629 22.072L9.60567 10.5725C10.2993 8.32984 10.7752 6.7141 11.0332 5.72651C11.3846 4.38123 11.4148 3.26789 11.1242 2.38852C10.8316 1.508 10.2875 0.96256 9.49099 0.754492C9.44929 0.743598 9.41356 0.749061 9.37247 0.740902C9.33265 0.727927 9.30374 0.705579 9.26245 0.694795C8.46506 0.486509 7.72476 0.695825 7.03921 1.32149C6.35464 1.94677 5.8365 2.93265 5.4851 4.27794C5.22698 5.26613 4.85252 6.90773 4.36034 9.20303L1.85834 20.9833L1.85584 20.9827Z" fill="#1A9BD7"/>
<path id="Vector_2" d="M12.8176 27.6454C11.9177 28.4013 11.3015 29.0402 10.9686 29.5619C10.6359 30.083 10.6433 30.5926 10.9918 31.0885C11.0572 31.1815 11.1332 31.2529 11.209 31.3234C11.2501 31.4192 11.2908 31.5138 11.356 31.6065C11.7041 32.1017 12.1807 32.2804 12.7846 32.1451C13.3877 32.0078 14.1978 31.6445 15.2134 31.0533L22.9171 26.2954C24.4164 25.3646 25.4802 24.6784 26.1075 24.2374C26.9621 23.6366 27.4887 22.9685 27.6866 22.2346C27.8837 21.4987 27.7544 20.805 27.2968 20.1541C27.2729 20.12 27.2456 20.0999 27.2208 20.0679C27.1991 20.0338 27.1892 20.001 27.1655 19.9673C26.7075 19.3157 26.0993 18.9596 25.34 18.8966C24.5815 18.834 23.7746 19.1034 22.92 19.7042C22.2923 20.1454 21.2872 20.9142 19.9036 22.0096L12.819 27.6475L12.8176 27.6454Z" fill="#1A9BD7"/>
</g>
</svg>
