<svg class="star1" width="27" height="26" viewBox="0 0 27 26" fill="none" xmlns="http://www.w3.org/2000/svg">
<path id="star1" d="M13.1168 22.4223L5.58339 25.3062C5.23615 25.4357 4.87125 25.1708 4.8889 24.8001L5.30089 16.7428C5.30678 16.6192 5.26558 16.4956 5.18906 16.3956L0.115757 10.1216C-0.119663 9.83321 0.0215891 9.40357 0.380605 9.30352L8.17302 7.20828C8.29661 7.17296 8.40255 7.09645 8.46729 6.99051L12.8697 0.233949C13.0698 -0.077983 13.5288 -0.077983 13.7289 0.233949L18.1313 6.9964C18.2019 7.10234 18.3079 7.17885 18.4256 7.21416L26.218 9.3094C26.577 9.40357 26.7183 9.8391 26.4828 10.1275L21.4154 16.4014C21.3389 16.5015 21.2977 16.6251 21.3036 16.7487L21.7156 24.8059C21.7332 25.1767 21.3683 25.4416 21.0211 25.3121L13.4876 22.4282C13.364 22.3811 13.2346 22.3811 13.1168 22.4223Z" fill="#FFB636"/>
</svg>
