<svg class="star2" width="16" height="16" viewBox="0 0 12 13" fill="none" xmlns="http://www.w3.org/2000/svg">
<path id="star2" d="M1.77032 6.68695L0.0280826 3.45787C-0.0506926 3.30885 0.0445738 3.12805 0.210324 3.11369L3.81382 2.81453C3.86907 2.8097 3.92143 2.78369 3.96118 2.74308L6.43669 0.0736446C6.55034 -0.0500687 6.7498 -0.0121064 6.81624 0.144036L8.22406 3.5375C8.24731 3.59124 8.2878 3.6345 8.33882 3.65733L11.6091 5.23883C11.7599 5.31045 11.788 5.5178 11.6618 5.62698L8.9282 8.02279C8.88547 8.06104 8.85799 8.11348 8.84951 8.16881L8.39639 11.8147C8.37655 11.9826 8.1918 12.0725 8.04926 11.9836L4.95257 10.0726C4.90345 10.0441 4.84604 10.0329 4.79151 10.043L1.2385 10.7144C1.07491 10.7447 0.934933 10.5958 0.971164 10.4312L1.79042 6.85475C1.80376 6.79607 1.79583 6.73763 1.77032 6.68695Z" fill="#FFB636"/>
</svg>
