<svg class='palmTree' cx='120' cy='120' width="452" height="501" viewBox="0 0 452 501" fill="none" xmlns="http://www.w3.org/2000/svg">
<path d="M281.336 501H254.152L238.929 262.078H256.327L281.336 501Z" fill="#A28973"/>
<path d="M252.639 475.061L253.696 493.632L269.805 483.573L252.639 475.061ZM249.47 423.216L250.527 441.787L266.636 432.502L249.47 423.216ZM246.301 372.919L247.358 389.943L262.41 381.431L246.301 372.919ZM243.132 321.848L244.189 338.871L258.713 330.36L243.132 321.848ZM239.963 271.55L241.02 287.027L254.488 279.288L239.963 271.55ZM277.199 467.323L275.615 449.526L260.826 458.037L277.199 467.323ZM271.917 415.478L270.333 399.228L256.601 406.966L271.917 415.478ZM266.636 363.633L265.051 348.157L251.847 355.895L266.636 363.633ZM261.354 312.562L259.77 296.312L246.037 304.824L261.354 312.562Z" fill="#BD9D83"/>
<path d="M227.528 242.08C306.628 220.161 404.398 267.482 367.679 318.378L358.891 307.176L346.442 312.103L344.766 296.999L333.023 301.143L329.228 287.605L315.367 290.967L312.984 274.297L296.298 277.659L292.503 264.904L276.523 267.482L272.022 264.781L258.867 254.957L251.541 250.03L237.416 262.433L227.528 242.08Z" fill="#94B578"/>
<path d="M234.792 241.72C187.19 191.151 82.8089 142.78 55.8535 213.137H78.2208V223.251L97.1469 216.215L97.7205 225.45L117.22 219.733L119.514 229.847L140.161 222.371L144.749 234.244L163.675 228.967L168.837 239.961L185.469 236.882L192.351 243.918H207.263L212.424 245.237L234.792 241.72Z" fill="#95BB74"/>
<path d="M237.895 241.547C154.255 225.036 53.6119 282.602 93.6064 336.28L106.529 315.845L113.806 332.356L122.298 305.526L128.888 321.349L139.437 295.207L148.084 310.342L157.262 282.136L169.337 297.271L179.2 272.505L190.59 286.263L188.533 264.937L209.786 273.88L223.077 256.682L224.869 261.497L237.895 241.547Z" fill="#95BB74"/>
<path d="M217.208 229.103C263.965 167.191 367.742 107.032 395.112 194.059L374.585 183.545L372.874 206.324L355.768 187.634L353.487 209.244L335.811 192.306L332.39 214.501L313.573 195.227L307.301 219.758L290.194 202.82L283.352 226.182L268.527 212.165L259.974 230.855L246.859 220.926L240.016 232.607L217.208 229.103Z" fill="#A4CB82"/>
<path d="M260.862 248.839C267.475 256.719 267.475 268.235 260.862 274.296C253.648 280.358 242.828 278.539 235.614 270.054C229.001 262.174 229.001 250.658 235.614 244.596C242.828 238.535 254.249 240.354 260.862 248.839Z" fill="#847F7B"/>
<path d="M263.471 214.035C273.537 219.506 277.682 230.449 273.537 239.567C268.8 248.078 257.551 251.117 247.485 245.646C237.419 240.175 233.275 229.233 237.419 220.114C241.564 211.604 253.406 209.172 263.471 214.035Z" fill="#92847A"/>
<path d="M240.135 247.741C234.758 257.488 223.106 261.665 215.04 257.024C206.525 251.918 204.285 239.851 210.111 230.103C215.488 220.356 227.139 216.179 235.206 220.821C243.272 225.926 245.513 237.994 240.135 247.741Z" fill="#9B8B80"/>
</svg>
