<svg class="car" width="321" height="321" viewBox="0 0 321 321" fill="none" xmlns="http://www.w3.org/2000/svg">
<ellipse cx="161.5" cy="262" rx="159.5" ry="7" fill="#C4C4C4"/>
<path d="M8.38296 165.553L26.722 151.353L50.1017 103.442C52.6 98.3222 56.4865 94.0071 61.3182 90.9886C66.1498 87.9701 71.7323 86.3696 77.4293 86.3697H195.639C200.591 86.3696 205.455 87.6817 209.735 90.1724C214.014 92.6631 217.558 96.2434 220.004 100.549L248.307 150.361C275.95 151.108 302.281 169.114 302.281 169.114C312.323 173.59 313.097 186.617 313.097 197.612C313.097 200.3 312.681 202.479 315.369 202.479C316.659 202.479 317.897 202.992 318.81 203.904C319.723 204.817 320.236 206.055 320.236 207.346V224.728C320.236 226.018 319.723 227.256 318.81 228.169C317.897 229.082 316.659 229.595 315.369 229.595H21.3001C9.64752 229.595 0.201843 220.148 0.201843 208.496V182.235C0.201727 179.015 0.938981 175.837 2.35707 172.945C3.77516 170.053 5.83645 167.525 8.38296 165.553V165.553Z" fill="#FF473E"/>
<path d="M221.625 138.72L205.7 110.692C204.159 107.981 201.928 105.727 199.233 104.159C196.539 102.591 193.477 101.765 190.359 101.765H128.757V145.714L217.713 145.464C221.168 145.455 223.332 141.725 221.625 138.72V138.72ZM50.4296 139.429L63.3223 113.01C66.6558 106.179 73.7209 101.765 81.3221 101.765H111.243V145.763L54.4998 145.923C51.1569 145.932 48.9638 142.432 50.4296 139.429V139.429Z" fill="white"/>
<path d="M286.543 224.232C286.543 199.779 266.719 179.955 242.265 179.955C217.812 179.955 197.988 199.779 197.988 224.232V229.595H286.543V224.232ZM124.381 229.595H35.826V224.232C35.826 199.779 55.6496 179.955 80.1033 179.955C104.557 179.955 124.381 199.779 124.381 224.232V229.595Z" fill="#D32A2A"/>
<path d="M0.251396 201.236H5.08396C10.3065 201.236 13.5654 197.002 13.5654 191.78C13.5654 186.557 10.3065 182.324 5.08396 182.324H0.251396V201.236V201.236ZM313.259 199.938H307.778C302.555 199.938 299.296 195.705 299.296 190.482C299.296 185.26 302.555 181.026 307.778 181.026H311.484C313.48 184.899 313.259 199.938 313.259 199.938V199.938Z" fill="#FFD469"/>
<path d="M200.014 131.176C201.759 132.208 203.515 133.375 205.02 134.616L210.268 118.732L222.602 139.347C224.316 142.085 222.351 145.641 219.12 145.646L206.799 145.659C205.001 147.509 202.429 149.209 199.894 150.617C196.264 152.634 191.337 150.533 191.337 146.961V134.762C191.337 131.137 196.405 129.04 200.014 131.176ZM51.4522 145.886C48.7293 145.878 46.955 143.022 48.1544 140.578L65.3567 105.507C65.8751 104.45 66.6793 103.56 67.6782 102.937C68.677 102.315 69.8305 101.985 71.0075 101.985H79.208V145.968L51.4522 145.886Z" fill="#2B3B47"/>
</svg>
