<svg class='moon' width="209" height="179" viewBox="0 0 209 179" fill="none" xmlns="http://www.w3.org/2000/svg">
<path d="M110.955 178.015C160.112 178.015 199.962 138.165 199.962 89.0076C199.962 39.85 160.112 0 110.955 0C61.7971 0 21.9471 39.85 21.9471 89.0076C21.9471 138.165 61.7971 178.015 110.955 178.015Z" fill="#FFE558"/>
<path d="M108.703 9.82626C109.003 12.4065 103.399 14.5067 96.6541 15.7268C89.9091 16.947 84.1449 16.867 83.2242 14.4267C82.3035 11.9865 87.067 7.86606 94.4325 6.52593C101.778 5.16579 108.403 7.246 108.703 9.82626V9.82626ZM46.6971 137.799C46.8572 137.519 48.3383 137.039 50.1596 138.559C51.981 140.079 57.365 144.6 59.5066 146.32C61.6482 148.04 59.7468 149.72 58.0455 149.52C49.8194 148.58 44.9158 140.759 46.6971 137.799V137.799ZM73.4169 158.341C73.4769 158.061 74.4977 157.241 76.4191 157.901C78.3406 158.561 83.9847 160.521 86.2064 161.241C88.428 161.961 87.4273 163.862 86.0062 164.222C79.1612 165.982 72.8965 161.241 73.4169 158.341ZM87.067 149.76C88.2079 150.52 89.3887 151.74 88.9684 153.001C88.5681 154.141 87.107 154.521 85.8661 154.621C81.7631 154.941 77.58 154.141 73.8572 152.44C71.2353 151.24 64.3502 147.46 65.0707 143.94C66.0514 138.959 84.1449 147.84 87.067 149.76V149.76ZM188.102 76.5529C187.722 76.8329 183.098 77.013 181.657 73.9126C180.216 70.8123 175.953 61.6314 174.232 58.0711C172.49 54.5107 178.375 52.9306 180.476 54.1707C190.604 60.1113 192.225 73.5326 188.102 76.5529V76.5529ZM176.213 47.71C175.993 48.0301 174.252 48.4501 172.35 46.4499C170.449 44.4497 164.845 38.4691 162.603 36.1889C160.361 33.9087 162.723 32.0685 164.645 32.4885C173.931 34.4487 178.595 44.3497 176.213 47.71V47.71ZM141.848 16.6069C141.788 16.907 140.667 17.7871 138.685 17.007C136.704 16.2269 130.88 13.8867 128.578 13.0266C126.276 12.1665 127.417 10.0863 128.918 9.72625C136.163 8.02608 142.528 13.4466 141.848 16.6069Z" fill="#FFCD40"/>
<path d="M110.955 178.015C160.112 178.015 199.962 138.165 199.962 89.0076C199.962 39.85 160.112 0 110.955 0C61.7971 0 21.9471 39.85 21.9471 89.0076C21.9471 138.165 61.7971 178.015 110.955 178.015Z" fill="url(#paint0_radial_55_6)"/>
<path fill-rule="evenodd" clip-rule="evenodd" d="M24.5472 137.736C21.9043 136.854 19.5182 135.336 17.5984 133.317C15.6785 131.297 14.2835 128.837 13.5356 126.153C13.4952 125.994 13.404 125.853 13.2759 125.751C13.1479 125.648 12.9899 125.591 12.826 125.586C12.6622 125.582 12.5014 125.631 12.3681 125.727C12.2348 125.822 12.1363 125.959 12.0877 126.115C11.218 128.767 9.71046 131.165 7.69747 133.098C5.68448 135.032 3.22759 136.441 0.542586 137.203C0.390558 137.242 0.255435 137.33 0.157613 137.453C0.0597907 137.576 0.00457242 137.727 0.000271701 137.884C-0.00402902 138.041 0.0428262 138.195 0.133775 138.323C0.224725 138.451 0.35483 138.546 0.504475 138.594C5.85788 140.365 10.0111 144.728 11.5352 150.139C11.7447 150.882 12.7354 150.901 12.9831 150.177C14.7358 144.804 19.0795 140.651 24.5091 139.127C25.214 138.937 25.233 137.965 24.5472 137.736V137.736Z" fill="#FFF176"/>
<path fill-rule="evenodd" clip-rule="evenodd" d="M166.451 116.052C164.547 115.414 162.828 114.32 161.443 112.865C160.059 111.411 159.051 109.64 158.507 107.707C158.478 107.591 158.411 107.489 158.318 107.415C158.225 107.34 158.109 107.299 157.99 107.297C157.871 107.295 157.754 107.332 157.658 107.403C157.562 107.473 157.492 107.574 157.459 107.688C156.832 109.599 155.745 111.327 154.293 112.719C152.841 114.111 151.069 115.124 149.134 115.671C148.638 115.804 148.619 116.509 149.114 116.68C151.019 117.311 152.74 118.4 154.125 119.852C155.51 121.304 156.518 123.073 157.059 125.006C157.211 125.539 157.935 125.558 158.107 125.025C158.73 123.117 159.814 121.392 161.263 120.003C162.712 118.614 164.481 117.604 166.413 117.061C166.927 116.909 166.946 116.223 166.451 116.052V116.052Z" fill="#FFF9C4"/>
<path fill-rule="evenodd" clip-rule="evenodd" d="M208.497 15.8081C205.854 14.9255 203.468 13.4078 201.549 11.3883C199.629 9.36884 198.234 6.90915 197.486 4.22496C197.445 4.06609 197.354 3.92475 197.226 3.82243C197.098 3.72011 196.94 3.66241 196.776 3.6581C196.612 3.65379 196.451 3.7031 196.318 3.79854C196.185 3.89398 196.086 4.03033 196.038 4.18686C195.168 6.8389 193.661 9.23686 191.648 11.1701C189.635 13.1034 187.178 14.5129 184.493 15.2747C184.341 15.314 184.206 15.4018 184.108 15.5246C184.01 15.6474 183.955 15.7988 183.95 15.9557C183.946 16.1127 183.993 16.2668 184.084 16.3948C184.175 16.5229 184.305 16.6178 184.455 16.6654C189.808 18.4372 193.961 22.8 195.485 28.2105C195.695 28.9535 196.686 28.9726 196.933 28.2486C198.686 22.8762 203.03 18.723 208.459 17.1989C209.164 17.0084 209.183 16.0368 208.497 15.8081V15.8081Z" fill="#FFF176"/>
<path fill-rule="evenodd" clip-rule="evenodd" d="M34.7687 33.1403C32.8647 32.5023 31.1455 31.4085 29.7609 29.9541C28.3762 28.4998 27.3681 26.7289 26.8243 24.7959C26.7952 24.6803 26.7288 24.5775 26.6355 24.5033C26.5421 24.4292 26.4269 24.3879 26.3077 24.3857C26.1885 24.3835 26.0719 24.4207 25.9759 24.4914C25.8799 24.562 25.8098 24.6624 25.7765 24.7768C25.1494 26.6879 24.0621 28.4154 22.6103 29.8074C21.1585 31.1994 19.3868 32.2131 17.4511 32.7593C16.9558 32.8927 16.9367 33.5976 17.4321 33.769C19.3368 34.4 21.0575 35.4891 22.4427 36.9408C23.8279 38.3925 24.8354 40.1622 25.3764 42.0944C25.5289 42.6279 26.2528 42.6469 26.4243 42.1135C27.0478 40.2057 28.1319 38.4811 29.5807 37.0921C31.0295 35.7031 32.7983 34.6926 34.7306 34.1501C35.245 33.9976 35.2641 33.3118 34.7687 33.1403V33.1403Z" fill="#FFF9C4"/>
<defs>
<radialGradient id="paint0_radial_55_6" cx="0" cy="0" r="1" gradientUnits="userSpaceOnUse" gradientTransform="translate(110.955 88.9996) scale(98.3817)">
<stop offset="0.758" stop-color="#FFF9C4" stop-opacity="0"/>
<stop offset="0.992" stop-color="#FFF9C4"/>
</radialGradient>
</defs>
</svg>
