<svg class="camera" width="89" height="94" viewBox="0 0 89 94" fill="none" xmlns="http://www.w3.org/2000/svg">
<g id="camera">
<g id="Group 3">
<g id="Mask Group">
<g id="Vector 1" >
<path id="Vector 1_2" d="M17.0385 0.226752C16.1544 -0.278036 15.5537 1.94855 15.3638 3.12494C16.1763 6.12278 18.1648 12.3582 19.6192 13.3171C21.0736 14.2761 20.5337 11.8051 20.082 10.4497C19.4358 7.25237 17.9225 0.731541 17.0385 0.226752Z" fill="#FFB636"/>
</g>
</g>
<path id="Vector 2" d="M2.08506 4.17818C0.417013 3.80866 0 6.17971 0 7.41142C2.23951 10.3367 7.41356 16.3721 10.1936 17.1111C12.9737 17.8502 11.352 15.4175 10.1936 14.1089C8.18581 10.9526 3.75312 4.54769 2.08506 4.17818Z" fill="#FFB636"/>
</g>
<g id="icons8:old-time-camera">
<path id="Vector" d="M40.1342 23.9183L39.2114 24.6434L35.6813 27.5136L33.4621 26.9516L34.0241 24.7324L25.1473 22.4842L24.5853 24.7034L20.1469 23.5793L10.0299 63.5248L67.729 78.1382L77.846 38.1926L62.3116 34.2583L60.5711 30.0532L60.1069 28.9768L40.1342 23.9183ZM41.2293 28.9188L56.7636 32.8531L58.5041 37.0583L58.9683 38.1346L72.2835 41.5069L70.0353 50.3837L57.1351 47.1165C55.8254 42.5718 52.208 38.784 47.3103 37.5435C42.4147 36.3036 37.4283 37.9124 34.1109 41.2852L21.213 38.0185L23.4612 29.1418L36.7764 32.5141L37.6992 31.789L41.2293 28.9188ZM62.8447 41.4779L61.7205 45.9163L66.1589 47.0404L67.283 42.602L62.8447 41.4779ZM46.1862 41.9819C51.1128 43.2297 54.0625 48.1803 52.8147 53.1069C51.567 58.0335 46.6164 60.9833 41.6898 59.7355C36.7631 58.4877 33.8134 53.5371 35.0612 48.6105C36.3089 43.6839 41.2596 40.7342 46.1862 41.9819ZM20.0889 42.4569L31.3934 45.32C31.0775 46.0198 30.8197 46.7443 30.6228 47.4864C28.7669 54.8142 33.2379 62.318 40.5656 64.1739C47.8934 66.0298 55.3972 61.5588 57.2531 54.231C57.4426 53.4832 57.5454 52.7039 57.6066 51.959L68.9112 54.8221L64.4148 72.5757L15.5924 60.2105L20.0889 42.4569Z" fill="#FFB636"/>
</g>
</g>
</svg>
