<svg width="35" height="29" viewBox="0 0 35 29" fill="none" xmlns="http://www.w3.org/2000/svg">
<g id="splash2">
<path id="Vector" d="M19.0881 25.7421C20.4976 26.4152 21.5941 26.8322 22.3775 26.9935C23.1601 27.1548 23.7068 26.9623 24.0143 26.4157C24.072 26.3131 24.0993 26.2074 24.1257 26.102C24.2024 26.024 24.278 25.9468 24.3355 25.8447C24.6425 25.2988 24.5227 24.7324 23.9793 24.1458C23.4343 23.5608 22.5087 22.8399 21.2013 21.9853L10.9886 15.6016C8.99574 14.3609 7.55396 13.4901 6.66432 12.9896C5.45246 12.308 4.38333 11.9959 3.45897 12.0536C2.53302 12.1128 1.86725 12.5004 1.46362 13.218C1.44249 13.2555 1.43869 13.2915 1.42036 13.3292C1.3977 13.3644 1.36874 13.3867 1.34782 13.4239C0.943766 14.1422 0.958121 14.9113 1.38907 15.7334C1.8199 16.5543 2.64178 17.306 3.85364 17.9876C4.74382 18.4884 6.23641 19.2676 8.33133 20.3268L19.0894 25.7398L19.0881 25.7421Z" fill="#1A9BD7"/>
<path id="Vector_2" d="M28.3173 16.833C28.8197 17.8953 29.2811 18.6537 29.7011 19.1082C30.1205 19.5624 30.6153 19.6848 31.1835 19.4736C31.2901 19.434 31.3784 19.3787 31.4658 19.3233C31.569 19.3079 31.6708 19.2925 31.777 19.253C32.3444 19.0421 32.6383 18.6266 32.6609 18.0081C32.6813 17.3899 32.5358 16.5142 32.222 15.3817L29.5776 6.72186C29.0583 5.03523 28.6649 3.83208 28.3977 3.11327C28.0338 2.13411 27.5214 1.45505 26.8619 1.07713C26.2002 0.699487 25.4964 0.648316 24.7506 0.92551C24.7115 0.940023 24.6852 0.961278 24.648 0.977109C24.6095 0.989433 24.5752 0.990672 24.5366 1.00504C23.79 1.28252 23.291 1.78025 23.0372 2.49865C22.784 3.21632 22.8395 4.06518 23.2034 5.04434C23.4707 5.76359 23.9588 6.93104 24.6668 8.54757L28.3196 16.8321L28.3173 16.833Z" fill="#1A9BD7"/>
</g>
</svg>
