<svg class="track1" width="102" height="215" viewBox="0 0 102 215" fill="none" xmlns="http://www.w3.org/2000/svg">
<path id="track1" d="M55.9999 95L54.6528 95.6598C54.7256 95.8083 54.8224 95.9437 54.9393 96.0607L55.9999 95ZM43.0001 144L42.535 142.574L43.0001 144ZM10.7464 209.868C10.4095 209.111 9.52283 208.771 8.76602 209.108C8.0092 209.445 7.6688 210.331 8.00572 211.088L10.7464 209.868ZM5.04346 203.826C5.32891 204.604 6.19076 205.003 6.96845 204.717C7.74615 204.432 8.14519 203.57 7.85974 202.792L5.04346 203.826ZM5.5677 195.55C5.3586 194.748 4.53926 194.268 3.73766 194.477C2.93605 194.686 2.45574 195.505 2.66483 196.307L5.5677 195.55ZM1.1689 188.505C1.26431 189.328 2.00876 189.917 2.83167 189.822C3.65459 189.727 4.24435 188.982 4.14894 188.159L1.1689 188.505ZM3.9831 180.728C4.05043 179.902 3.43566 179.178 2.60998 179.111C1.78429 179.044 1.06036 179.658 0.993024 180.484L3.9831 180.728ZM2.62532 172.558C2.35618 173.341 2.77314 174.194 3.55663 174.464C4.34011 174.733 5.19344 174.316 5.46258 173.532L2.62532 172.558ZM8.73145 166.97C9.19219 166.282 9.00756 165.35 8.31907 164.889C7.63058 164.429 6.69895 164.613 6.23822 165.302L8.73145 166.97ZM11.4412 159.159C10.8431 159.732 10.8229 160.681 11.3961 161.279C11.9693 161.878 12.9189 161.898 13.517 161.325L11.4412 159.159ZM19.345 156.618C20.027 156.148 20.1987 155.214 19.7285 154.531C19.2583 153.849 18.3242 153.678 17.6421 154.148L19.345 156.618ZM24.4154 150.061C23.6838 150.45 23.4058 151.358 23.7945 152.09C24.1831 152.821 25.0913 153.099 25.8229 152.711L24.4154 150.061ZM32.6927 149.441C33.4543 149.115 33.8076 148.234 33.4817 147.472C33.1558 146.711 32.2742 146.357 31.5125 146.683L32.6927 149.441ZM38.8214 143.837C38.0407 144.114 37.6325 144.972 37.9097 145.753C38.1868 146.533 39.0444 146.942 39.8251 146.664L38.8214 143.837ZM47.0656 143.95C47.8066 143.579 48.1071 142.678 47.7367 141.937C47.3663 141.196 46.4653 140.896 45.7243 141.266L47.0656 143.95ZM51.3626 137.322C50.7582 137.888 50.7276 138.837 51.2942 139.442C51.8607 140.046 52.81 140.077 53.4144 139.51L51.3626 137.322ZM58.3 133.559C58.7427 132.859 58.5339 131.932 57.8336 131.489C57.1334 131.047 56.2069 131.256 55.7642 131.956L58.3 133.559ZM58.8284 125.659C58.5463 126.438 58.9491 127.298 59.728 127.58C60.5069 127.862 61.3671 127.459 61.6492 126.68L58.8284 125.659ZM63.5274 119.293C63.6529 118.474 63.0908 117.709 62.272 117.583C61.4531 117.458 60.6875 118.02 60.562 118.839L63.5274 119.293ZM60.9466 111.816C60.9842 112.643 61.6856 113.284 62.5132 113.246C63.3407 113.209 63.9811 112.507 63.9435 111.68L60.9466 111.816ZM62.7479 104.103C62.5222 103.306 61.693 102.842 60.8959 103.068C60.0989 103.294 59.6357 104.123 59.8615 104.92L62.7479 104.103ZM57.0607 98.6702C57.5186 99.3605 58.4495 99.549 59.1398 99.0911C59.8302 98.6332 60.0187 97.7024 59.5608 97.012L57.0607 98.6702ZM55.6664 90.7663C55.3256 90.0112 54.4373 89.6753 53.6822 90.016C52.9271 90.3567 52.5911 91.245 52.9318 92.0001L55.6664 90.7663ZM49.8204 84.4748C50.112 85.2502 50.977 85.6424 51.7524 85.3508C52.5278 85.0592 52.92 84.1942 52.6284 83.4188L49.8204 84.4748ZM50.0945 75.9085C49.8579 75.1146 49.0225 74.6628 48.2286 74.8994C47.4347 75.136 46.9829 75.9714 47.2195 76.7653L50.0945 75.9085ZM45.1984 68.8587C45.3701 69.6691 46.1662 70.1869 46.9767 70.0153C47.7871 69.8436 48.305 69.0475 48.1333 68.237L45.1984 68.8587ZM46.8601 60.4512C46.7672 59.628 46.0246 59.036 45.2014 59.1289C44.3782 59.2218 43.7861 59.9645 43.8791 60.7877L46.8601 60.4512ZM43.421 52.5936C43.4173 53.422 44.0859 54.0966 44.9143 54.1003C45.7427 54.104 46.4173 53.4355 46.421 52.6071L43.421 52.5936ZM46.993 44.8121C47.114 43.9926 46.5477 43.2301 45.7282 43.1091C44.9087 42.9881 44.1462 43.5543 44.0252 44.3739L46.993 44.8121ZM45.9036 36.3116C45.6467 37.0992 46.077 37.9459 46.8646 38.2028C47.6521 38.4597 48.4989 38.0295 48.7557 37.2419L45.9036 36.3116ZM51.8319 30.1353C52.2321 29.4099 51.9684 28.4975 51.2431 28.0974C50.5177 27.6972 49.6053 27.9609 49.2051 28.6863L51.8319 30.1353ZM53.903 21.8332C53.3713 22.4685 53.4553 23.4145 54.0906 23.9462C54.7259 24.4779 55.6719 24.3939 56.2036 23.7586L53.903 21.8332ZM61.7059 18.2847C62.3419 17.7539 62.4272 16.808 61.8964 16.172C61.3656 15.536 60.4197 15.4507 59.7836 15.9815L61.7059 18.2847ZM66.5041 11.2134C65.7949 11.6416 65.5672 12.5636 65.9954 13.2728C66.4236 13.982 67.3456 14.2097 68.0548 13.7815L66.5041 11.2134ZM74.9989 10.1783C75.7558 9.84156 76.0964 8.955 75.7596 8.19809C75.4229 7.44119 74.5363 7.10058 73.7794 7.43731L74.9989 10.1783ZM81.4418 4.49787C80.6548 4.75659 80.2265 5.60431 80.4853 6.3913C80.744 7.17829 81.5917 7.60654 82.3787 7.34782L81.4418 4.49787ZM89.9744 5.1996C90.7798 5.0055 91.2754 4.19528 91.0813 3.38991C90.8872 2.58454 90.0769 2.08901 89.2716 2.2831L89.9744 5.1996ZM97.2175 0.653174C96.401 0.793563 95.853 1.56923 95.9934 2.38568C96.1338 3.20212 96.9094 3.75017 97.7259 3.60978L97.2175 0.653174ZM12.3541 213.355C11.7947 212.181 11.2584 211.018 10.7464 209.868L8.00572 211.088C8.52885 212.263 9.07599 213.449 9.64548 214.645L12.3541 213.355ZM7.85974 202.792C6.94944 200.312 6.18031 197.898 5.5677 195.55L2.66483 196.307C3.30526 198.762 4.10489 201.269 5.04346 203.826L7.85974 202.792ZM4.14894 188.159C3.85095 185.589 3.78861 183.113 3.9831 180.728L0.993024 180.484C0.780626 183.089 0.851093 185.764 1.1689 188.505L4.14894 188.159ZM5.46258 173.532C6.24055 171.268 7.31904 169.081 8.73145 166.97L6.23822 165.302C4.68355 167.625 3.48862 170.044 2.62532 172.558L5.46258 173.532ZM13.517 161.325C15.2034 159.708 17.1392 158.139 19.345 156.618L17.6421 154.148C15.3178 155.751 13.255 157.42 11.4412 159.159L13.517 161.325ZM25.8229 152.711C27.9352 151.588 30.2221 150.498 32.6927 149.441L31.5125 146.683C28.9722 147.77 26.6088 148.896 24.4154 150.061L25.8229 152.711ZM39.8251 146.664C41.0047 146.246 42.2178 145.833 43.4651 145.426L42.535 142.574C41.2641 142.988 40.0264 143.409 38.8214 143.837L39.8251 146.664ZM43.4651 145.426C44.7218 145.016 45.9222 144.521 47.0656 143.95L45.7243 141.266C44.7125 141.772 43.6496 142.21 42.535 142.574L43.4651 145.426ZM53.4144 139.51C55.2987 137.744 56.9262 135.732 58.3 133.559L55.7642 131.956C54.515 133.932 53.0466 135.743 51.3626 137.322L53.4144 139.51ZM61.6492 126.68C62.5185 124.28 63.1442 121.792 63.5274 119.293L60.562 118.839C60.2076 121.15 59.6292 123.448 58.8284 125.659L61.6492 126.68ZM63.9435 111.68C63.8246 109.062 63.4282 106.504 62.7479 104.103L59.8615 104.92C60.4736 107.081 60.8372 109.408 60.9466 111.816L63.9435 111.68ZM59.5608 97.012C58.8237 95.9006 57.9909 94.8697 57.0606 93.9393L54.9393 96.0607C55.7188 96.8402 56.4265 97.714 57.0607 98.6702L59.5608 97.012ZM57.347 94.3402C56.7974 93.218 56.2338 92.024 55.6664 90.7663L52.9318 92.0001C53.5128 93.2877 54.0898 94.5103 54.6528 95.6598L57.347 94.3402ZM52.6284 83.4188C51.7312 81.0332 50.8722 78.5181 50.0945 75.9085L47.2195 76.7653C48.019 79.4482 48.9009 82.0299 49.8204 84.4748L52.6284 83.4188ZM48.1333 68.237C47.5922 65.6823 47.1566 63.0779 46.8601 60.4512L43.8791 60.7877C44.1874 63.5196 44.6394 66.2195 45.1984 68.8587L48.1333 68.237ZM46.421 52.6071C46.4328 49.9923 46.613 47.3855 46.993 44.8121L44.0252 44.3739C43.6225 47.1009 43.4334 49.8504 43.421 52.5936L46.421 52.6071ZM48.7557 37.2419C49.5489 34.8101 50.5642 32.4335 51.8319 30.1353L49.2051 28.6863C47.8416 31.1581 46.7524 33.7093 45.9036 36.3116L48.7557 37.2419ZM56.2036 23.7586C57.7994 21.8519 59.6253 20.0212 61.7059 18.2847L59.7836 15.9815C57.5689 17.83 55.6158 19.7867 53.903 21.8332L56.2036 23.7586ZM68.0548 13.7815C70.1742 12.5018 72.4842 11.297 74.9989 10.1783L73.7794 7.43731C71.1573 8.60386 68.7361 9.86572 66.5041 11.2134L68.0548 13.7815ZM82.3787 7.34782C84.7615 6.56448 87.2909 5.84634 89.9744 5.1996L89.2716 2.2831C86.5138 2.94773 83.9061 3.68775 81.4418 4.49787L82.3787 7.34782ZM97.7259 3.60978C99.0235 3.38666 100.352 3.17826 101.711 2.98508L101.289 0.0149198C99.9015 0.212086 98.5445 0.424987 97.2175 0.653174L97.7259 3.60978Z" fill="#FFB636"/>
</svg>
